<svg width="236" height="46" fill="none" xmlns="http://www.w3.org/2000/svg"><g clip-path="url(#a)"><path d="M28.803.06 46.06 17.437l-28.3 28.5L.505 28.558l28.3-28.5Z" fill="#233B99"/><path d="M11.557 17.329 28.813-.05l28.299 28.5-17.256 17.377-28.299-28.5Z" fill="#FF7549"/><path d="M74.102 13.098c1.008 0 1.919.212 2.733.635a4.802 4.802 0 0 1 1.945 1.8c.474.776.71 1.668.71 2.673 0 .697-.131 1.35-.394 1.959-.254.6-.692 1.045-1.314 1.337 1.717.423 2.575 2.113 2.575 5.068 0 .918-.25 1.765-.749 2.541a5.313 5.313 0 0 1-2.023 1.84c-.85.45-1.774.674-2.773.674h-7.675V13.098h6.965Zm-.473 6.948c.35 0 .67-.08.96-.238.297-.16.53-.38.696-.662.175-.291.263-.613.263-.966 0-.52-.184-.931-.552-1.231-.368-.309-.824-.463-1.367-.463h-2.55v3.56h2.55Zm.762 8.218c.456 0 .872-.106 1.249-.317.376-.221.674-.521.893-.9.22-.389.329-.82.329-1.297 0-.406-.114-.79-.342-1.152a2.575 2.575 0 0 0-.894-.9 2.33 2.33 0 0 0-1.235-.344H71.08v4.91h3.311ZM92.03 13.098c.99 0 1.896.256 2.72.768a5.485 5.485 0 0 1 1.944 2.064c.483.865.724 1.809.724 2.832 0 1.182-.29 2.241-.868 3.176a5.625 5.625 0 0 1-2.365 2.118l4.362 7.57H94l-4.153-7.2h-1.366v7.2h-3.943V13.098h7.49Zm-.474 7.358c.342 0 .657-.088.947-.265.297-.185.534-.427.71-.727.174-.31.262-.64.262-.993s-.088-.68-.263-.98a1.945 1.945 0 0 0-.71-.727 1.719 1.719 0 0 0-.946-.278H88.48v3.97h3.075Zm20.334-7.358 6.675 18.527h-4.178l-1.052-2.911h-7.332l-1.051 2.912h-4.179l6.676-18.528h4.441Zm0 11.646-2.234-6.14-2.207 6.14h4.441Zm9.838-11.646h4.257l6.729 11.355V13.098h3.942v18.527h-4.258l-6.728-11.354v11.354h-3.942V13.098Zm25.5 0c1.664 0 3.197.419 4.599 1.257a9.209 9.209 0 0 1 3.352 3.375 8.967 8.967 0 0 1 1.248 4.632 9.037 9.037 0 0 1-1.248 4.645 9.344 9.344 0 0 1-3.352 3.374 8.87 8.87 0 0 1-4.599 1.244h-6.097V13.098h6.097Zm0 14.557c.937 0 1.809-.233 2.615-.701a5.318 5.318 0 0 0 1.918-1.932 5.107 5.107 0 0 0 .724-2.66c0-.953-.241-1.835-.724-2.647a5.318 5.318 0 0 0-1.918-1.932 5.05 5.05 0 0 0-2.615-.715h-2.156v10.587h2.156Zm13.391-14.557h3.943v18.527h-3.943V13.098Zm8.794 0h4.257l6.729 11.355V13.098h3.942v18.527h-4.258l-6.728-11.354v11.354h-3.942V13.098Zm27.399 18.872c-1.683 0-3.216-.433-4.599-1.297-1.376-.874-2.462-2.047-3.26-3.52-.789-1.474-1.183-3.08-1.183-4.818 0-1.826.426-3.467 1.276-4.923.858-1.455 1.987-2.59 3.389-3.4 1.402-.822 2.887-1.232 4.456-1.232a8.41 8.41 0 0 1 3.85.94c1.235.626 2.334 1.584 3.298 2.872l-3.522 1.905c-.525-.59-1.104-1.032-1.735-1.323-.63-.3-1.278-.45-1.945-.45-.884 0-1.721.243-2.509.728-.779.485-1.41 1.16-1.893 2.025-.481.864-.722 1.844-.722 2.938 0 1.023.232 1.963.697 2.819a5.348 5.348 0 0 0 1.878 2.024 4.76 4.76 0 0 0 2.576.741c.841 0 1.643-.229 2.405-.688.771-.459 1.415-1.138 1.932-2.038h-2.471v-3.44h7.123c.009.114.013.282.013.502 0 1.747-.403 3.357-1.209 4.83-.806 1.474-1.902 2.643-3.285 3.508a8.443 8.443 0 0 1-4.56 1.297Zm25.764-9.661-6.676-9.238h4.862l4.258 5.876 4.258-5.876h4.862l-6.676 9.238 6.729 9.316h-4.889l-4.284-5.928-4.284 5.928h-4.888l6.728-9.316Z" fill="#181A3F"/></g><defs><clipPath id="a"><path fill="#fff" d="M0 0h236v46H0z"/></clipPath></defs></svg>